<mxfile host="app.diagrams.net" agent="Mozilla/5.0 (Windows NT 10.0; Win64; x64) AppleWebKit/537.36 (KHTML, like Gecko) Chrome/131.0.0.0 Safari/537.36" version="25.0.3">
  <diagram name="Trang-1" id="4kAwdk7bMErgHtccVjYA">
    <mxGraphModel dx="1050" dy="557" grid="1" gridSize="10" guides="1" tooltips="1" connect="1" arrows="1" fold="1" page="1" pageScale="1" pageWidth="827" pageHeight="1169" math="0" shadow="0">
      <root>
        <mxCell id="0" />
        <mxCell id="1" parent="0" />
        <mxCell id="lAJn3jAwUEjGd197KmM8-2" style="edgeStyle=orthogonalEdgeStyle;rounded=0;orthogonalLoop=1;jettySize=auto;html=1;" edge="1" parent="1" source="lAJn3jAwUEjGd197KmM8-1">
          <mxGeometry relative="1" as="geometry">
            <mxPoint x="210" y="280" as="targetPoint" />
          </mxGeometry>
        </mxCell>
        <mxCell id="lAJn3jAwUEjGd197KmM8-1" value="START" style="ellipse;whiteSpace=wrap;html=1;" vertex="1" parent="1">
          <mxGeometry x="40" y="240" width="120" height="80" as="geometry" />
        </mxCell>
        <mxCell id="lAJn3jAwUEjGd197KmM8-5" style="edgeStyle=orthogonalEdgeStyle;rounded=0;orthogonalLoop=1;jettySize=auto;html=1;entryX=0;entryY=0.5;entryDx=0;entryDy=0;" edge="1" parent="1" source="lAJn3jAwUEjGd197KmM8-3" target="lAJn3jAwUEjGd197KmM8-4">
          <mxGeometry relative="1" as="geometry" />
        </mxCell>
        <mxCell id="lAJn3jAwUEjGd197KmM8-3" value="Input a,b" style="rounded=1;whiteSpace=wrap;html=1;" vertex="1" parent="1">
          <mxGeometry x="210" y="250" width="120" height="60" as="geometry" />
        </mxCell>
        <mxCell id="lAJn3jAwUEjGd197KmM8-7" style="edgeStyle=orthogonalEdgeStyle;rounded=0;orthogonalLoop=1;jettySize=auto;html=1;entryX=0;entryY=0.5;entryDx=0;entryDy=0;" edge="1" parent="1" target="lAJn3jAwUEjGd197KmM8-9">
          <mxGeometry relative="1" as="geometry">
            <mxPoint x="520" y="280" as="sourcePoint" />
            <mxPoint x="630" y="380" as="targetPoint" />
          </mxGeometry>
        </mxCell>
        <mxCell id="lAJn3jAwUEjGd197KmM8-4" value="b=2,b&amp;lt;=sqrt(a), b++" style="rounded=1;whiteSpace=wrap;html=1;absoluteArcSize=1;arcSize=14;strokeWidth=2;" vertex="1" parent="1">
          <mxGeometry x="390" y="255" width="130" height="50" as="geometry" />
        </mxCell>
        <mxCell id="lAJn3jAwUEjGd197KmM8-15" style="edgeStyle=orthogonalEdgeStyle;rounded=0;orthogonalLoop=1;jettySize=auto;html=1;entryX=0;entryY=0.5;entryDx=0;entryDy=0;" edge="1" parent="1" source="lAJn3jAwUEjGd197KmM8-8" target="lAJn3jAwUEjGd197KmM8-11">
          <mxGeometry relative="1" as="geometry" />
        </mxCell>
        <mxCell id="lAJn3jAwUEjGd197KmM8-8" value="a khong phai so nguyen to" style="rounded=1;whiteSpace=wrap;html=1;" vertex="1" parent="1">
          <mxGeometry x="450" y="380" width="120" height="60" as="geometry" />
        </mxCell>
        <mxCell id="lAJn3jAwUEjGd197KmM8-10" style="edgeStyle=orthogonalEdgeStyle;rounded=0;orthogonalLoop=1;jettySize=auto;html=1;exitX=0.5;exitY=1;exitDx=0;exitDy=0;" edge="1" parent="1" source="lAJn3jAwUEjGd197KmM8-9" target="lAJn3jAwUEjGd197KmM8-8">
          <mxGeometry relative="1" as="geometry" />
        </mxCell>
        <mxCell id="lAJn3jAwUEjGd197KmM8-13" style="edgeStyle=orthogonalEdgeStyle;rounded=0;orthogonalLoop=1;jettySize=auto;html=1;entryX=0.5;entryY=0;entryDx=0;entryDy=0;" edge="1" parent="1" source="lAJn3jAwUEjGd197KmM8-9" target="lAJn3jAwUEjGd197KmM8-12">
          <mxGeometry relative="1" as="geometry" />
        </mxCell>
        <mxCell id="lAJn3jAwUEjGd197KmM8-9" value="" style="rhombus;whiteSpace=wrap;html=1;" vertex="1" parent="1">
          <mxGeometry x="640" y="240" width="80" height="80" as="geometry" />
        </mxCell>
        <mxCell id="lAJn3jAwUEjGd197KmM8-11" value="END" style="ellipse;whiteSpace=wrap;html=1;" vertex="1" parent="1">
          <mxGeometry x="620" y="520" width="120" height="80" as="geometry" />
        </mxCell>
        <mxCell id="lAJn3jAwUEjGd197KmM8-14" style="edgeStyle=orthogonalEdgeStyle;rounded=0;orthogonalLoop=1;jettySize=auto;html=1;entryX=0.5;entryY=0;entryDx=0;entryDy=0;" edge="1" parent="1" source="lAJn3jAwUEjGd197KmM8-12" target="lAJn3jAwUEjGd197KmM8-11">
          <mxGeometry relative="1" as="geometry" />
        </mxCell>
        <mxCell id="lAJn3jAwUEjGd197KmM8-12" value="a&amp;nbsp;la so nguyen to" style="rounded=1;whiteSpace=wrap;html=1;" vertex="1" parent="1">
          <mxGeometry x="620" y="390" width="120" height="60" as="geometry" />
        </mxCell>
        <mxCell id="lAJn3jAwUEjGd197KmM8-16" value="false" style="text;html=1;align=center;verticalAlign=middle;resizable=0;points=[];autosize=1;strokeColor=none;fillColor=none;" vertex="1" parent="1">
          <mxGeometry x="575" y="328" width="50" height="30" as="geometry" />
        </mxCell>
        <mxCell id="lAJn3jAwUEjGd197KmM8-17" value="true" style="text;html=1;align=center;verticalAlign=middle;resizable=0;points=[];autosize=1;strokeColor=none;fillColor=none;" vertex="1" parent="1">
          <mxGeometry x="680" y="358" width="40" height="30" as="geometry" />
        </mxCell>
      </root>
    </mxGraphModel>
  </diagram>
</mxfile>
